# xmcd
#
# Track frame offsets: 
#        150
#        24776
#        33892
#        46648
#        50594
#        56615
#        71309
#        77738
#        91038
#        94712
#        110359
#        122196
#        142367
#        159953
#        174239
#        185940
#        193458
#        210737
#        224547
#        228289
#        235807
#        243427
#
# Disc length: 3357 seconds
#
# Revision: 0
# Processed by: cddbd v1.5.2PL0 Copyright (c) Steve Scherf et al.
# Submitted via: ExactAudioCopy v0.99pb5
#
DISCID=2d0d1b16
DTITLE=Elvis Presley  - FTD 57 - Let Yourself Go !-The Making Of 'Elvi
DTITLE=s'-The '68 Comeback Special  FLAC
DYEAR=1900
DGENRE=
TTITLE0=Trouble-Guitar Man opening - takes 6 and 7
TTITLE1=Nothingville - takes 5 and 6
TTITLE2=Guitar Man - Escape Section 1 - fast takes 1,2,5
TTITLE3=Guitar Man -After Karate Section 2 - take 1
TTITLE4=Little Egypt - take 8
TTITLE5=Trouble-Guitar Man - After Karate Section 3 - take 2
TTITLE6=Big Boss Man - take 2
TTITLE7=It Hurts Me - First part, take 5. Second part, take 3
TTITLE8=Guitar Man - Escape 1 (remake) - take 6
TTITLE9=Lord - Gospel Section 1 - Rehearsal-take 1
TTITLE10=Up Above My Head-I Found That Light - Gospel - Section 2, tak
TTITLE10=e 7
TTITLE11=Saved - Gospel Section 3, take 4
TTITLE12=If I Can Dream - takes 3 and 4
TTITLE13=Memories (alternate vocal track)
TTITLE14=I Got A Woman
TTITLE15=Blue Moon-Young Love-Oh, Happy Day
TTITLE16=When It Rains It Really Pours
TTITLE17=Blue Christmas
TTITLE18=That's When Your Heartaches Begin
TTITLE19=Peter Gunn Theme
TTITLE20=Love Me
TTITLE21=When My Blue Moon Turns To Gold Again
EXTD=
EXTT0=
EXTT1=
EXTT2=
EXTT3=
EXTT4=
EXTT5=
EXTT6=
EXTT7=
EXTT8=
EXTT9=
EXTT10=
EXTT11=
EXTT12=
EXTT13=
EXTT14=
EXTT15=
EXTT16=
EXTT17=
EXTT18=
EXTT19=
EXTT20=
EXTT21=
PLAYORDER=
